<?xml version="1.0" encoding="UTF-8" standalone="no"?>
<svg
   xmlns:dc="http://purl.org/dc/elements/1.1/"
   xmlns:cc="http://creativecommons.org/ns#"
   xmlns:rdf="http://www.w3.org/1999/02/22-rdf-syntax-ns#"
   xmlns:svg="http://www.w3.org/2000/svg"
   xmlns="http://www.w3.org/2000/svg"
   xmlns:sodipodi="http://sodipodi.sourceforge.net/DTD/sodipodi-0.dtd"
   xmlns:inkscape="http://www.inkscape.org/namespaces/inkscape"
   width="132.75684mm"
   height="64.723953mm"
   viewBox="0 0 132.75684 64.723953"
   version="1.1"
   id="svg8"
   sodipodi:docname="animefx_logo_1.svg"
   inkscape:version="1.0.1 (3bc2e813f5, 2020-09-07)">
  <sodipodi:namedview
     pagecolor="#303030"
     bordercolor="#666666"
     borderopacity="1"
     objecttolerance="10"
     gridtolerance="10"
     guidetolerance="10"
     inkscape:pageopacity="0"
     inkscape:pageshadow="2"
     inkscape:window-width="1920"
     inkscape:window-height="1052"
     id="namedview52"
     showgrid="false"
     inkscape:zoom="2.3477448"
     inkscape:cx="250.87906"
     inkscape:cy="122.31298"
     inkscape:window-x="0"
     inkscape:window-y="0"
     inkscape:window-maximized="1"
     inkscape:current-layer="text12" />
  <defs
     id="defs2" />
  <metadata
     id="metadata5">
    <rdf:RDF>
      <cc:Work
         rdf:about="">
        <dc:format>image/svg+xml</dc:format>
        <dc:type
           rdf:resource="http://purl.org/dc/dcmitype/StillImage" />
        <dc:title></dc:title>
      </cc:Work>
    </rdf:RDF>
  </metadata>
  <g
     id="layer1"
     transform="translate(-31.329763,-68.843667)">
    <g
       aria-label="Anime    FX"
       id="text12"
       style="font-style:normal;font-weight:normal;font-size:10.5833px;line-height:1.25;font-family:sans-serif;fill:#ffffff;fill-opacity:1;stroke:none;stroke-width:0.264583">
      <path
         d="m 42.491879,117.14282 q 0.15503,0.20671 0.15503,0.43925 0,0.28422 -0.206706,0.46509 -0.180868,0.2067 -0.465088,0.2067 -0.284221,0 -0.490927,-0.2067 -0.206705,-0.18087 -0.206705,-0.46509 0,-0.23254 0.155029,-0.43925 V 92.338117 H 32.54416 v 24.804703 q 0.15503,0.20671 0.15503,0.43925 0,0.28422 -0.206706,0.46509 -0.206706,0.2067 -0.490927,0.2067 -0.28422,0 -0.490926,-0.2067 -0.180868,-0.18087 -0.180868,-0.46509 0,-0.23254 0.15503,-0.43925 V 86.731221 q 0,-1.136883 0.258382,-2.222088 0.258382,-1.085206 0.904338,-1.937868 0.645956,-0.852661 1.705323,-1.369426 1.085206,-0.516765 2.687177,-0.516765 h 5.451866 z M 41.432512,91.278749 v -9.534307 h -4.392499 q -1.31775,0 -2.19625,0.43925 -0.852662,0.43925 -1.369426,1.16272 -0.516765,0.697633 -0.723471,1.601971 -0.206706,0.8785 -0.206706,1.782838 v 4.547528 z"
         style="font-style:normal;font-variant:normal;font-weight:normal;font-stretch:normal;font-size:52.9167px;font-family:'Wire One';-inkscape-font-specification:'Wire One';fill:#ffffff;stroke-width:0.264583"
         id="path69" />
      <path
         d="m 57.788113,117.14282 q 0.155029,0.20671 0.155029,0.43925 0,0.28422 -0.206706,0.46509 -0.206705,0.2067 -0.490926,0.2067 -0.284221,0 -0.490926,-0.2067 -0.180868,-0.18087 -0.180868,-0.46509 0,-0.23254 0.155029,-0.43925 V 96.833969 q 0,-0.904338 -0.206706,-1.808676 -0.206705,-0.904338 -0.72347,-1.60197 -0.490926,-0.723471 -1.343588,-1.162721 -0.826823,-0.465088 -2.118735,-0.465088 -1.111044,0 -1.937867,0.465088 -0.826824,0.43925 -1.369427,1.162721 -0.542603,0.697632 -0.826823,1.60197 -0.258382,0.904338 -0.258382,1.808676 v 20.308851 q 0.155029,0.20671 0.155029,0.43925 0,0.28422 -0.206706,0.46509 -0.206706,0.2067 -0.490926,0.2067 -0.284221,0 -0.490927,-0.2067 -0.180867,-0.18087 -0.180867,-0.46509 0,-0.23254 0.155029,-0.43925 V 91.924705 q -0.155029,-0.258382 -0.155029,-0.490926 0,-0.284221 0.180867,-0.465088 0.206706,-0.206706 0.490927,-0.206706 0.28422,0 0.490926,0.206706 0.206706,0.180867 0.206706,0.465088 0,0.232544 -0.155029,0.490926 v 1.31775 q 0.72347,-1.266073 1.756999,-1.860353 1.03353,-0.620117 2.6355,-0.620117 1.576132,0 2.609661,0.542603 1.059368,0.516764 1.679485,1.369426 0.645956,0.852662 0.904339,1.937867 0.258382,1.085206 0.258382,2.222088 z"
         style="font-style:normal;font-variant:normal;font-weight:normal;font-stretch:normal;font-size:52.9167px;font-family:'Wire One';-inkscape-font-specification:'Wire One';fill:#ffffff;stroke-width:0.264583"
         id="path71" />
      <path
         d="m 63.188303,117.14282 q 0.155029,0.20671 0.155029,0.43925 0,0.28422 -0.206705,0.46509 -0.180868,0.2067 -0.465089,0.2067 -0.28422,0 -0.490926,-0.2067 -0.206706,-0.18087 -0.206706,-0.46509 0,-0.23254 0.15503,-0.43925 V 91.924705 q -0.15503,-0.258382 -0.15503,-0.490926 0,-0.284221 0.206706,-0.465088 0.206706,-0.206706 0.490926,-0.206706 0.284221,0 0.465089,0.206706 0.206705,0.180867 0.206705,0.465088 0,0.232544 -0.155029,0.490926 z m 0,-32.220276 q 0.155029,0.15503 0.155029,0.413412 0,0.284221 -0.206705,0.490927 -0.180868,0.206705 -0.465089,0.206705 -0.28422,0 -0.490926,-0.206705 -0.206706,-0.206706 -0.206706,-0.490927 0,-0.258382 0.15503,-0.413412 v -1.524455 q -0.15503,-0.258383 -0.15503,-0.490927 0,-0.28422 0.206706,-0.465088 0.206706,-0.206706 0.490926,-0.206706 0.284221,0 0.465089,0.206706 0.206705,0.180868 0.206705,0.465088 0,0.232544 -0.155029,0.490927 z"
         style="font-style:normal;font-variant:normal;font-weight:normal;font-stretch:normal;font-size:52.9167px;font-family:'Wire One';-inkscape-font-specification:'Wire One';fill:#ffffff;stroke-width:0.264583"
         id="path73" />
      <path
         d="m 85.977622,117.14282 q 0.155029,0.20671 0.155029,0.43925 0,0.28422 -0.206705,0.46509 -0.206706,0.2067 -0.490927,0.2067 -0.28422,0 -0.490926,-0.2067 -0.180868,-0.18087 -0.180868,-0.46509 0,-0.23254 0.155029,-0.43925 V 96.136337 q 0,-0.775147 -0.180867,-1.550294 -0.180868,-0.775147 -0.620118,-1.395264 -0.43925,-0.620118 -1.188558,-1.007691 -0.723471,-0.387574 -1.834515,-0.387574 -1.059367,0 -1.782838,0.361735 -0.697632,0.335897 -1.136882,0.904338 -0.43925,0.568442 -0.645956,1.291912 -0.206706,0.723471 -0.232544,1.472779 v 21.316542 q 0.15503,0.20671 0.15503,0.43925 0,0.28422 -0.206706,0.46509 -0.206706,0.2067 -0.490927,0.2067 -0.28422,0 -0.490926,-0.2067 -0.180868,-0.18087 -0.180868,-0.46509 0,-0.23254 0.15503,-0.43925 V 96.136337 q 0,-0.775147 -0.180868,-1.550294 -0.180868,-0.775147 -0.620118,-1.395264 -0.439249,-0.620118 -1.188558,-1.007691 -0.723471,-0.387574 -1.834515,-0.387574 -1.059367,0 -1.808676,0.361735 -0.72347,0.335897 -1.16272,0.904338 -0.43925,0.568442 -0.645956,1.291912 -0.180868,0.723471 -0.180868,1.472779 v 21.316542 q 0.15503,0.20671 0.15503,0.43925 0,0.28422 -0.206706,0.46509 -0.206706,0.2067 -0.490927,0.2067 -0.28422,0 -0.490926,-0.2067 -0.180868,-0.18087 -0.180868,-0.46509 0,-0.23254 0.15503,-0.43925 V 91.924705 q -0.15503,-0.258382 -0.15503,-0.490926 0,-0.284221 0.180868,-0.465088 0.206706,-0.206706 0.490926,-0.206706 0.284221,0 0.490927,0.206706 0.206706,0.180867 0.206706,0.465088 0,0.232544 -0.15503,0.490926 v 0.8785 q 0.645956,-0.981853 1.550294,-1.498617 0.904338,-0.542603 2.299603,-0.542603 1.860352,0 2.868044,0.775147 1.033529,0.775147 1.472779,1.963705 0.594279,-1.421102 1.782838,-2.067058 1.214397,-0.671794 2.557985,-0.671794 1.395264,0 2.325441,0.465088 0.930176,0.465088 1.472779,1.214397 0.568441,0.749309 0.800985,1.705323 0.232544,0.956015 0.232544,1.937868 z"
         style="font-style:normal;font-variant:normal;font-weight:normal;font-stretch:normal;font-size:52.9167px;font-family:'Wire One';-inkscape-font-specification:'Wire One';fill:#ffffff;stroke-width:0.264583"
         id="path75" />
      <path
         d="m 100.73125,102.88012 h -9.844365 v 9.30176 q 0,0.93018 0.206706,1.83451 0.232544,0.90434 0.723471,1.62781 0.516764,0.69763 1.369426,1.13688 0.852661,0.43925 2.092897,0.43925 1.214396,0 2.04122,-0.38757 0.826823,-0.38757 1.31775,-1.00769 0.516764,-0.64596 0.749308,-1.47278 0.232544,-0.82682 0.284221,-1.70532 -0.07752,-0.0775 -0.129191,-0.20671 -0.05168,-0.12919 -0.05168,-0.2067 0,-0.28423 0.206706,-0.49093 0.206706,-0.20671 0.490928,-0.20671 0.28422,0 0.49092,0.20671 0.20671,0.2067 0.20671,0.49093 0,0.0775 -0.0517,0.2067 -0.0258,0.12919 -0.10335,0.20671 -0.0775,1.0852 -0.38757,2.09289 -0.28422,1.00769 -0.90434,1.78284 -0.620118,0.77515 -1.653647,1.24024 -1.007691,0.49092 -2.506308,0.49092 -1.550294,0 -2.609662,-0.51676 -1.033529,-0.5426 -1.679485,-1.39527 -0.620117,-0.85266 -0.904338,-1.93786 -0.258382,-1.08521 -0.258382,-2.22209 V 96.833969 q 0,-1.136882 0.258382,-2.222088 0.284221,-1.085205 0.904338,-1.937867 0.645956,-0.852662 1.679485,-1.369426 1.059368,-0.542603 2.609662,-0.542603 1.550293,0 2.583823,0.542603 1.033529,0.516764 1.679485,1.369426 0.645957,0.852662 0.904337,1.937867 0.28422,1.085206 0.28422,2.222088 z m -1.059366,-1.05937 v -4.986781 q 0,-0.904338 -0.206706,-1.808676 -0.206706,-0.904338 -0.72347,-1.60197 -0.490927,-0.723471 -1.343588,-1.162721 -0.852662,-0.465088 -2.118735,-0.465088 -1.240236,0 -2.092897,0.465088 -0.852662,0.43925 -1.369426,1.162721 -0.490927,0.697632 -0.723471,1.60197 -0.206706,0.904338 -0.206706,1.808676 v 4.986781 z"
         style="font-style:normal;font-variant:normal;font-weight:normal;font-stretch:normal;font-size:52.9167px;font-family:'Wire One';-inkscape-font-specification:'Wire One';fill:#ffffff;stroke-width:0.264583"
         id="path77" />
      <path
         d="m 140.75467,117.14282 q 0.15503,0.20671 0.15503,0.43925 0,0.28422 -0.20671,0.46509 -0.2067,0.2067 -0.49092,0.2067 -0.28422,0 -0.49093,-0.2067 -0.18087,-0.18087 -0.18087,-0.46509 0,-0.23254 0.15503,-0.43925 V 86.679544 q 0,-1.136882 0.25839,-2.196249 0.25838,-1.085206 0.90433,-1.91203 0.64596,-0.852661 1.70533,-1.369426 1.0852,-0.516765 2.68717,-0.516765 h 4.28915 q 0.23254,-0.155029 0.46509,-0.155029 0.28422,0 0.49092,0.206706 0.20671,0.206706 0.20671,0.490926 0,0.284221 -0.20671,0.490927 -0.2067,0.206706 -0.49092,0.206706 -0.20671,0 -0.46509,-0.180868 h -4.28915 q -1.31775,0 -2.19625,0.43925 -0.85266,0.413412 -1.36942,1.111044 -0.51677,0.697632 -0.72347,1.60197 -0.20671,0.8785 -0.20671,1.782838 v 4.599205 h 7.26054 q 0.23255,-0.155029 0.46509,-0.155029 0.28422,0 0.49093,0.206706 0.2067,0.180868 0.2067,0.465088 0,0.284221 -0.2067,0.490927 -0.20671,0.206705 -0.49093,0.206705 -0.23254,0 -0.46509,-0.155029 h -7.26054 z"
         style="font-style:normal;font-variant:normal;font-weight:normal;font-stretch:normal;font-size:52.9167px;font-family:'Wire One';-inkscape-font-specification:'Wire One';fill:#ffffff;stroke-width:0.264583"
         id="path79" />
      <path
         d="m 163.77654,117.03947 q 0.15503,0.0775 0.23254,0.23254 0.0775,0.15503 0.0775,0.31006 0,0.28422 -0.20671,0.46509 -0.2067,0.2067 -0.49092,0.2067 -0.28422,0 -0.49093,-0.2067 -0.18087,-0.18087 -0.18087,-0.46509 v -0.20671 l -5.09013,-16.8982 -5.09013,16.8982 q 0.0517,0.10336 0.0517,0.20671 0,0.28422 -0.20671,0.46509 -0.18087,0.2067 -0.46509,0.2067 -0.28422,0 -0.49093,-0.2067 -0.2067,-0.18087 -0.2067,-0.46509 0,-0.36174 0.25838,-0.5426 l 5.55522,-18.448501 -5.11597,-17.156586 q -0.25838,-0.258382 -0.25838,-0.568441 0,-0.28422 0.18087,-0.490926 0.2067,-0.206706 0.49092,-0.206706 0.28422,0 0.49093,0.206706 0.20671,0.206706 0.20671,0.490926 0,0.07751 -0.0258,0.155029 -0.0258,0.05168 -0.0258,0.103353 l 4.65088,15.554616 4.70256,-15.554616 q -0.0517,-0.05168 -0.0517,-0.258382 0,-0.28422 0.20671,-0.490926 0.2067,-0.206706 0.49092,-0.206706 0.28422,0 0.46509,0.206706 0.20671,0.206706 0.20671,0.490926 0,0.310059 -0.25838,0.568441 l -5.16765,17.156586 z"
         style="font-style:normal;font-variant:normal;font-weight:normal;font-stretch:normal;font-size:52.9167px;font-family:'Wire One';-inkscape-font-specification:'Wire One';fill:#ffffff;stroke-width:0.264583"
         id="path81" />
    </g>
    <path
       style="fill:#ff5555;stroke-width:0.137849"
       d="m 111.64432,133.38281 c -1.02339,-0.33392 -0.80456,-1.47256 0.35482,-1.8463 2.32268,-0.74876 2.95399,-1.37036 2.9755,-2.92979 0.006,-0.39691 0.11298,-0.66714 -0.12207,-0.85849 -0.49833,-0.4057 -0.66634,-0.95567 0.10454,-0.84216 0.38337,0.0564 0.1665,-0.34789 0.09,-2.62075 -0.0438,-1.29941 -0.17218,-2.82782 -0.28537,-3.39646 -0.41942,-2.10694 -0.65643,-4.1269 -0.78343,-6.67697 -0.1426,-2.86318 -0.43651,-5.54324 -0.76752,-6.99855 -0.2033,-0.89384 -0.4656,-1.36581 -0.46751,-0.84122 -0.002,0.42128 -0.4712,0.99181 -1.182,1.43582 -0.37292,0.23295 -1.11227,0.84222 -1.64299,1.35393 -0.97631,0.94134 -3.80453,3.36049 -7.58169,6.48508 -2.26952,1.87742 -6.294707,5.34721 -7.944081,6.84796 -0.841082,0.76529 -2.015055,1.55431 -2.906662,1.95355 -0.0546,0.0245 0.175504,-0.40977 0.51135,-0.96494 0.802126,-1.32595 1.70342,-2.24445 6.47643,-6.60012 2.196933,-2.00484 5.422603,-4.97444 7.168143,-6.59913 4.80322,-4.47065 5.99962,-5.48729 5.99962,-5.09816 0,0.12015 0.047,0.12052 0.19048,0.002 0.26781,-0.22228 0.20167,-0.89668 -0.12339,-1.25803 -0.2406,-0.26745 -0.27108,-0.48247 -0.2509,-1.77001 0.0126,-0.80607 0.22239,-3.047403 0.46612,-4.980731 0.43691,-3.465641 0.44017,-3.534564 0.23127,-4.89364 -0.14206,-0.92435 -0.18809,-1.878047 -0.13969,-2.894827 0.0689,-1.446162 0.0515,-1.575985 -0.37403,-2.804997 -0.6418,-1.853529 -0.56998,-2.305474 0.52741,-3.319395 0.4572,-0.422429 0.94362,-0.954156 1.08094,-1.181606 0.1373,-0.227449 0.50071,-0.725325 0.80756,-1.106387 0.30683,-0.381068 0.64058,-0.892464 0.74165,-1.136445 0.15947,-0.385017 0.15365,-0.48952 -0.0441,-0.791364 -0.18513,-0.282535 -0.277,-0.321469 -0.48979,-0.207584 -0.14407,0.07709 -0.39738,0.140177 -0.56291,0.140177 -0.43858,0 -1.28772,-0.926855 -1.57864,-1.723116 -0.29908,-0.818597 -0.56345,-1.163928 -0.42213,-0.551395 l 0.0954,0.413547 -0.30845,-0.303593 c -0.16429,-0.1617 -0.23137,-0.557897 -0.30964,-0.551634 -0.0584,0.0046 -0.13318,0.375612 -0.20398,0.468793 -0.15756,0.207339 -0.15199,0.196414 -0.15586,-0.199424 -0.003,-0.246404 -0.0565,-0.53838 -0.13743,-0.53838 -0.0313,0 -0.21476,0.151149 -0.21824,0.121868 -0.006,-0.04756 0.0727,-0.198612 0.10169,-0.289943 0.13188,-0.415662 -0.0237,-0.992607 -0.28292,-0.950197 -0.0637,0.01042 -0.15623,0.193543 -0.19708,0.158176 -0.0589,-0.05101 -0.079,-0.219607 -0.0722,-0.500329 0.003,-0.102034 0.18338,-0.454545 0.10691,-0.474734 -0.0871,-0.02303 -0.43476,0.296945 -0.46231,0.350532 -0.28602,0.55616 -0.13736,-0.241387 0.20004,-1.242997 0.55448,-1.645924 1.94099,-3.344537 3.25929,-3.992967 1.24511,-0.612431 3.25547,-0.364642 4.86396,0.599512 0.60073,0.360088 0.82736,0.601519 1.10279,1.174741 0.18861,0.392551 0.33697,0.672391 0.40462,0.793441 0.0323,0.0577 0.0641,-0.0433 0.24741,-0.06991 0.52912,0.0037 1.23676,0.757014 1.39621,1.486695 0.23021,1.053533 -0.0962,1.085996 0.19314,1.940568 0.0668,0.19744 -0.39627,-0.940568 -0.45953,-0.899701 -0.14815,0.09571 -0.0221,1.260965 0.219,1.837962 0.11373,0.272188 0.20678,0.504862 0.20678,0.51706 0,0.03714 -0.58109,-1.032464 -0.79832,-1.114923 -0.14074,-0.05342 0.053,1.048942 0.017,1.012941 -0.0517,-0.05174 -0.19949,-0.512256 -0.32834,-1.023377 -0.17374,-0.689127 -0.26162,-0.863721 -0.34003,-0.675549 -0.0596,0.142932 -0.007,0.663254 0.12059,1.191436 0.12447,0.515733 0.22631,1.332687 0.22631,1.81546 0,0.809598 0.0475,0.948581 0.61174,1.789632 1.22007,1.818705 2.86523,3.343267 4.97115,4.606742 1.49569,0.897363 2.31595,1.598373 3.25925,2.785418 1.32274,1.664519 2.54597,5.204122 2.68114,6.904991 0.0693,0.872281 -0.1504,3.703437 -0.41721,4.983085 -0.10698,0.513104 -0.3572,1.234728 -0.55603,1.603618 -0.28734,0.5331 -0.34348,0.58586 -0.27368,0.25717 0.73807,-3.474889 0.8654,-5.644991 0.42059,-7.168146 -0.3359,-1.150231 -1.17991,-2.672521 -2.21048,-3.9869 -0.92617,-1.181236 -1.2832,-1.543431 -1.92225,-1.950065 l -0.39717,-0.252717 0.0964,0.337864 c 0.053,0.185821 0.42596,0.989194 0.82876,1.785272 1.21542,2.402172 1.49421,3.141228 1.47564,5.316579 -0.009,1.023528 -0.18564,1.96874 -0.26353,2.196184 -0.11296,0.329848 -0.144,0.07874 -0.15339,-1.240635 -0.0187,-2.625225 -0.37596,-3.637207 -2.34753,-6.649142 -0.66283,-1.012586 -1.55209,-2.141872 -2.2253,-2.825899 -1.26132,-1.281596 -1.26331,-1.239582 -0.0242,0.51109 1.83584,2.593739 2.86243,5.053706 3.25185,7.79224 0.25129,1.76724 0.4458,9.016215 0.25521,9.511575 -0.0972,0.25263 -0.15038,-0.24413 -0.19923,-1.86097 -0.0752,-2.490344 -0.13298,-2.759066 -0.53905,-2.509247 -0.22823,0.140405 -0.30558,0.118323 -0.50467,-0.144098 -0.22476,-0.296224 -0.23352,-0.226229 -0.19844,1.585265 0.047,2.42085 -0.17458,2.15089 -0.31023,-0.37819 -0.0764,-1.423939 -0.15602,-1.940842 -0.33988,-2.205578 -0.13205,-0.190168 -0.45127,-0.747126 -0.70936,-1.237684 l -0.46926,-0.891918 -0.0871,1.443317 c -0.15478,2.566193 -0.4463,2.965463 -0.57574,0.788526 -0.0856,-1.439868 -0.37632,-2.831199 -0.68307,-3.269175 -0.13782,-0.196788 -0.16714,0.23477 -0.15304,2.253832 l 0.0174,2.49722 0.64772,1.69894 c 0.9613,2.52146 1.59168,3.52011 3.35298,5.31182 1.91408,1.94713 5.52855,4.70398 10.09809,7.70207 1.10162,0.72278 2.00521,1.40426 2.09022,1.50795 0.0715,0.33792 -0.007,0.43909 0.14207,0.84056 0.23866,0.64411 0.77214,1.40996 0.72845,1.45446 -0.0237,0.0242 -0.40594,-0.0266 -0.84926,-0.11288 -0.44331,-0.0863 -1.17823,-0.13714 -1.63313,-0.11296 l -0.82708,0.0439 -0.0424,0.66499 -0.0424,0.665 -0.60926,-0.56161 c -0.33511,-0.30889 -0.69156,-0.56161 -0.79213,-0.56161 -0.10058,0 -0.47161,0.18311 -0.82452,0.40691 -0.69099,0.43823 -1.38183,1.28571 -1.71033,2.09819 -0.32834,0.81209 -0.42873,0.79764 -1.81288,-0.26091 l -0.40013,-0.30602 -0.53594,0.40558 c -0.65707,0.40939 -0.69262,0.43685 -1.03403,0.5085 -0.37884,0.0795 -0.0942,-0.53643 -0.38795,-0.80179 -0.63319,-0.57206 -0.65526,-0.36788 -0.85844,0.0781 -0.3241,0.71132 0.61287,2.92479 1.79429,4.23882 0.4732,0.5263 0.62565,0.80583 0.62565,1.14718 0,0.54893 -0.56859,1.79099 -0.6818,1.58351 -0.31733,-0.58156 -0.18664,0.33545 -0.22029,1.06833 -0.088,1.91571 -0.74048,2.40577 -3.31675,2.49103 l -1.61351,0.0534 -0.0866,-0.34495 c -0.17289,-0.68888 -0.0271,-0.97672 0.67825,-1.33885 0.37018,-0.19004 0.76625,-0.48592 0.88016,-0.65747 0.27541,-0.41479 0.40186,-2.1637 0.17611,-2.43572 -0.10366,-0.12489 -0.13293,-0.36459 -0.0761,-0.6232 0.0721,-0.32794 0.003,-0.56547 -0.3146,-1.08153 -0.3047,-0.4952 -0.10958,-0.47593 -0.54445,-0.78094 -0.24414,-0.17124 0.1767,-0.54909 0.29125,-0.48596 0.4331,0.23866 0.151,-0.63871 -0.0416,-1.145 l -0.12784,-0.33626 -1.69866,0.44668 c -0.93426,0.24566 -1.99845,0.57904 -2.36487,0.74082 -0.73166,0.32305 -1.73517,0.38785 -1.99427,0.12874 -0.12866,-0.12865 -0.16556,-0.12099 -0.16607,0.0344 -4.2e-4,0.10993 -0.11667,1.19239 -0.25847,2.40547 -0.3068,2.62481 -0.26369,4.20024 0.14968,5.47036 0.244,0.74971 0.27046,0.98589 0.142,1.26781 -0.2386,0.52369 -0.75862,0.79157 -1.70274,0.87719 -0.7211,0.0654 -0.88126,0.0386 -1.03604,-0.17305 -0.16983,-0.23225 -0.25563,-0.23726 -1.18526,-0.069 -1.36496,0.24693 -2.28853,0.27575 -2.86016,0.0892 z M 126.6923,99.527179 c 0.30352,-0.192801 -0.64389,-5.662914 -1.33776,-7.831067 -0.35237,-1.101106 -0.71379,-1.820148 -0.56161,-1.117334 0.043,0.198727 0.20517,1.625464 0.36029,3.170527 0.34684,3.454672 0.59826,4.997344 0.88603,5.436516 0.23594,0.360098 0.38656,0.510635 0.65305,0.341358 z m -4.6759,-1.555714 c -0.10007,-1.18709 -0.69468,-3.945158 -1.13675,-5.272717 -0.40788,-1.224891 -0.41214,-1.231014 -0.33583,-0.482471 0.0426,0.41699 0.0509,1.614534 0.11677,2.65502 0.065,1.026723 -0.14944,1.777515 0.11336,2.060233 0.27174,0.292336 0.40046,0.354717 0.66208,0.79508 0.31647,0.532708 0.59025,0.968572 0.60839,0.968572 0.0182,0 0.006,-0.325675 -0.028,-0.723717 z m 0.25614,-8.605216 c -0.1625,-0.27945 -0.20174,-0.190004 -0.0687,0.156647 0.0473,0.123191 1.39664,5.281051 1.43214,5.24556 0.0355,-0.03548 -1.2827,-5.263844 -1.36342,-5.402207 z m -0.50405,-1.304963 c -0.20099,-0.482075 -0.42747,-0.938531 -0.50329,-1.014348 -0.0758,-0.07581 -0.034,0.110282 0.0929,0.413547 0.1269,0.303271 0.32652,0.786591 0.4436,1.07405 0.11708,0.28746 0.23974,0.495787 0.27257,0.462948 0.0328,-0.03282 -0.10474,-0.454126 -0.30574,-0.936197 z"
       id="path1982" />
  </g>
</svg>
